<?xml version="1.0" standalone="no"?>
<!DOCTYPE svg PUBLIC "-//W3C//DTD SVG 20010904//EN"
 "http://www.w3.org/TR/2001/REC-SVG-20010904/DTD/svg10.dtd">
<svg version="1.0" xmlns="http://www.w3.org/2000/svg"
 width="500.000000pt" height="500.000000pt" viewBox="0 0 500.000000 500.000000"
 preserveAspectRatio="xMidYMid meet">
<metadata>
Created by potrace 1.11, written by Peter Selinger 2001-2013
</metadata>
<g transform="translate(0.000000,500.000000) scale(0.100000,-0.100000)"
fill="#000000" stroke="none">
<path d="M2145 4969 c-27 -5 -74 -14 -102 -20 -29 -5 -55 -10 -58 -10 -2 0
-19 -5 -37 -10 -18 -6 -40 -12 -49 -14 -133 -29 -413 -159 -584 -270 -104 -67
-336 -240 -380 -282 -148 -143 -339 -285 -550 -408 -276 -161 -364 -255 -373
-401 -5 -68 8 -100 59 -158 67 -77 251 -182 464 -266 198 -78 322 -182 394
-332 23 -47 41 -91 41 -99 0 -9 -18 -20 -47 -28 -27 -7 -50 -13 -52 -14 -3 -1
-12 23 -21 53 -41 135 -101 192 -174 164 -34 -13 -59 -73 -58 -138 2 -86 65
-384 93 -441 32 -65 74 -84 127 -58 57 28 64 50 58 188 -3 66 -10 136 -15 156
-8 34 -6 38 16 48 14 6 40 14 58 17 33 5 34 5 41 -43 9 -60 10 -167 2 -213
-16 -95 -80 -212 -153 -279 -55 -51 -68 -75 -60 -112 7 -30 55 -69 125 -101
124 -57 187 -89 203 -101 19 -16 61 -127 72 -192 21 -123 74 -261 189 -497 87
-178 132 -242 209 -293 45 -31 182 -91 227 -100 8 -2 49 -12 90 -24 41 -11 89
-22 105 -24 253 -38 441 -101 470 -157 22 -43 11 -71 -64 -169 -71 -94 -99
-146 -141 -264 l-28 -77 940 0 940 0 -6 42 c-20 139 -27 415 -14 533 30 274
109 527 253 815 62 124 95 180 230 385 255 388 326 536 381 800 23 108 22 351
-1 505 -6 37 -34 201 -40 230 -66 330 -114 490 -189 637 -69 135 -125 200
-306 357 -58 50 -145 126 -195 169 -193 170 -368 248 -630 282 -27 3 -61 8
-75 10 -14 2 -63 9 -110 15 -216 28 -413 68 -650 130 -207 55 -258 63 -420 65
-85 1 -177 -2 -205 -6z"/>
</g>
</svg>
